<svg xmlns="http://www.w3.org/2000/svg" viewBox="0 0 32 32">
  <defs>
    <linearGradient id="fhg" x1="0%" y1="0%" x2="100%" y2="100%">
      <stop offset="0%" stop-color="#e8603a"/>
      <stop offset="35%" stop-color="#e8507a"/>
      <stop offset="70%" stop-color="#9b5acd"/>
      <stop offset="100%" stop-color="#e8a020"/>
    </linearGradient>
    <linearGradient id="fshine" x1="25%" y1="0%" x2="75%" y2="100%">
      <stop offset="0%" stop-color="#fff" stop-opacity="0.45"/>
      <stop offset="50%" stop-color="#fff" stop-opacity="0.1"/>
      <stop offset="100%" stop-color="#000" stop-opacity="0.1"/>
    </linearGradient>
    <radialGradient id="f3d" cx="35%" cy="30%" r="60%">
      <stop offset="0%" stop-color="#fff" stop-opacity="0.3"/>
      <stop offset="100%" stop-color="#fff" stop-opacity="0"/>
    </radialGradient>
    <filter id="fshadow">
      <feDropShadow dx="0" dy="1" stdDeviation="1.5" flood-color="#e8603a" flood-opacity="0.35"/>
    </filter>
  </defs>
  <!-- Heart -->
  <path d="M16 28 C16 28, 3.5 19.5, 3.5 12 C3.5 7, 7 4, 11 4 C13.5 4, 15.2 5.5, 16 7 C16.8 5.5, 18.5 4, 21 4 C25 4, 28.5 7, 28.5 12 C28.5 19.5, 16 28, 16 28Z"
    fill="url(#fhg)" filter="url(#fshadow)"/>
  <!-- 3D shine -->
  <path d="M16 28 C16 28, 3.5 19.5, 3.5 12 C3.5 7, 7 4, 11 4 C13.5 4, 15.2 5.5, 16 7 C16.8 5.5, 18.5 4, 21 4 C25 4, 28.5 7, 28.5 12 C28.5 19.5, 16 28, 16 28Z"
    fill="url(#fshine)"/>
  <path d="M16 28 C16 28, 3.5 19.5, 3.5 12 C3.5 7, 7 4, 11 4 C13.5 4, 15.2 5.5, 16 7 C16.8 5.5, 18.5 4, 21 4 C25 4, 28.5 7, 28.5 12 C28.5 19.5, 16 28, 16 28Z"
    fill="url(#f3d)"/>
  <!-- S -->
  <text x="16" y="17" text-anchor="middle" dominant-baseline="central"
    font-family="Georgia, serif" font-weight="700" font-style="italic"
    font-size="16" fill="white" opacity="0.95">S</text>
</svg>
