<svg xmlns="http://www.w3.org/2000/svg" viewBox="0 0 64 64">
  <defs>
    <linearGradient id="lhg" x1="0%" y1="0%" x2="100%" y2="100%">
      <stop offset="0%" stop-color="#e8603a"/>
      <stop offset="35%" stop-color="#e8507a"/>
      <stop offset="70%" stop-color="#9b5acd"/>
      <stop offset="100%" stop-color="#e8a020"/>
    </linearGradient>
    <linearGradient id="lshine" x1="25%" y1="0%" x2="75%" y2="100%">
      <stop offset="0%" stop-color="#fff" stop-opacity="0.45"/>
      <stop offset="50%" stop-color="#fff" stop-opacity="0.1"/>
      <stop offset="100%" stop-color="#000" stop-opacity="0.1"/>
    </linearGradient>
    <radialGradient id="l3d" cx="35%" cy="30%" r="60%">
      <stop offset="0%" stop-color="#fff" stop-opacity="0.3"/>
      <stop offset="100%" stop-color="#fff" stop-opacity="0"/>
    </radialGradient>
    <filter id="lshadow">
      <feDropShadow dx="0" dy="2" stdDeviation="3" flood-color="#e8603a" flood-opacity="0.35"/>
    </filter>
  </defs>
  <!-- Heart -->
  <path d="M32 56 C32 56, 7 39, 7 24 C7 14, 14 8, 22 8 C27 8, 30.4 11, 32 14 C33.6 11, 37 8, 42 8 C50 8, 57 14, 57 24 C57 39, 32 56, 32 56Z"
    fill="url(#lhg)" filter="url(#lshadow)"/>
  <!-- 3D shine -->
  <path d="M32 56 C32 56, 7 39, 7 24 C7 14, 14 8, 22 8 C27 8, 30.4 11, 32 14 C33.6 11, 37 8, 42 8 C50 8, 57 14, 57 24 C57 39, 32 56, 32 56Z"
    fill="url(#lshine)"/>
  <path d="M32 56 C32 56, 7 39, 7 24 C7 14, 14 8, 22 8 C27 8, 30.4 11, 32 14 C33.6 11, 37 8, 42 8 C50 8, 57 14, 57 24 C57 39, 32 56, 32 56Z"
    fill="url(#l3d)"/>
  <!-- S -->
  <text x="32" y="33.5" text-anchor="middle" dominant-baseline="central"
    font-family="Georgia, serif" font-weight="700" font-style="italic"
    font-size="32" fill="white" opacity="0.95">S</text>
</svg>
